<?xml version="1.0" encoding="UTF-8"?>
<svg id="Layer_2" data-name="Layer 2" xmlns="http://www.w3.org/2000/svg" viewBox="0 0 573.4 441.15">
  <defs>
    <style>
      .cls-1 {
        stroke-width: 33px;
      }

      .cls-1, .cls-2, .cls-3 {
        fill: none;
        stroke: #844c9d;
        stroke-miterlimit: 10;
      }

      .cls-4 {
        stroke: #844b9d;
        stroke-linecap: round;
        stroke-linejoin: round;
        stroke-width: 0px;
      }

      .cls-4, .cls-5 {
        fill: #844b9d;
      }

      .cls-6 {
        fill: #844c9d;
      }

      .cls-2 {
        stroke-width: 37px;
      }

      .cls-3 {
        stroke-width: 32px;
      }
    </style>
  </defs>
  <g id="Logo_01:_600_x_600_px" data-name="Logo 01: 600 x 600 px">
    <g>
      <path class="cls-2" d="m477.61,212.61c30.65-18.88,53.61-36.96,66.25-52.48,9.29-11.4,13.01-21.43,10.04-29.34-7-18.69-49.66-21.8-111.27-11.57"/>
      <path class="cls-2" d="m130.77,342.52c34.8,48.52,91.67,80.13,155.93,80.13,105.92,0,191.78-85.86,191.78-191.78,0-6.16-.3-12.25-.87-18.26-43.24,26.64-101.73,54.85-167.92,79.64-66.19,24.79-128.82,41.94-178.93,50.27-35.5,5.9-64.7,7.35-84.42,3.96-14.49-2.5-23.88-7.61-26.85-15.53-7-18.7,23.12-49.07,76.29-81.82-.57-6.01-.87-12.1-.87-18.26,0-105.92,85.86-191.78,191.78-191.78,64.26,0,121.13,31.61,155.93,80.13,12.44,17.34,21.94,36.75,27.99,57.21"/>
      <path class="cls-2" d="m95.8,249.13c2.06,21.78,7.89,43.17,17.17,62.98"/>
    </g>
    <circle class="cls-5" cx="112.96" cy="395.01" r="13.6"/>
    <circle class="cls-5" cx="520.82" cy="237.94" r="8.86"/>
    <polygon class="cls-6" points="88.41 88.45 126.57 74.78 88.41 63.39 74.74 25.23 63.34 63.39 25.18 77.06 63.34 88.45 77.01 126.61 88.41 88.45"/>
    <polygon class="cls-4" points="213.66 157.24 237.42 136.37 206.47 139.06 185.59 115.31 188.29 146.26 164.54 167.13 195.49 164.44 216.36 188.19 213.66 157.24"/>
    <line class="cls-3" x1="340.29" y1="292.21" x2="384.98" y2="332.01"/>
    <path class="cls-6" d="m383,222.94c-17.26-21.26-43.62-34.82-73.13-34.75-31.2.08-58.79,15.39-75.8,38.86,3.33,2.12,5.52,5.85,5.44,10.09-.11,6.47-5.45,11.62-11.92,11.5-1.7-.03-3.31-.43-4.76-1.11-4.26,10.75-6.61,22.47-6.58,34.74,0,.22.01.43.01.64-.18.81-.19,1.52,0,2.07,0,.03.03.04.04.07,0,.09,0,.18,0,.26l.12-.04c3.76,6.83,46.19-7.43,87.62-22.28,42.01-15.06,84.61-34.89,78.94-40.04Zm-43.02,15c-9.65-.17-17.33-8.13-17.16-17.78s8.13-17.33,17.78-17.16,17.33,8.13,17.16,17.78-8.13,17.33-17.78,17.16Z"/>
    <line class="cls-1" x1="299.82" y1="212.61" x2="312.31" y2="119.22"/>
    <polygon class="cls-6" points="321.1 368.23 347.88 358.63 321.1 350.64 311.51 323.86 303.51 350.64 276.73 360.23 303.51 368.23 313.11 395.01 321.1 368.23"/>
    <polygon class="cls-6" points="476.83 48.76 506.26 38.22 476.83 29.43 466.29 0 457.51 29.43 428.08 39.97 457.51 48.76 468.05 78.19 476.83 48.76"/>
  </g>
</svg>